<svg width="22" height="21" viewBox="0 0 22 21" fill="none" xmlns="http://www.w3.org/2000/svg">
<path opacity="0.9" d="M21.7706 8.34109L17.1556 12.8376L18.2445 19.1934C18.2889 19.4749 18.1778 19.749 17.9482 19.9194C17.8222 20.0157 17.6667 20.0601 17.5111 20.0601C17.3926 20.0601 17.2741 20.0305 17.163 19.9786L11.459 16.9785L5.75507 19.9786C5.50321 20.112 5.2069 20.0897 4.97726 19.9194C4.74762 19.7564 4.63651 19.4749 4.68095 19.1934L5.76989 12.8376L1.16229 8.34109C0.96228 8.14108 0.888203 7.85218 0.977095 7.5855C1.06599 7.31883 1.29563 7.11882 1.57712 7.08178L7.95517 6.15581L10.8071 0.377794C11.059 -0.125931 11.8887 -0.125931 12.1331 0.377794L14.9851 6.15581L21.3631 7.08178C21.6446 7.12622 21.8743 7.31883 21.9632 7.5855C22.0521 7.85218 21.978 8.14108 21.7706 8.34109Z" fill="#70758F" fill-opacity="0.3"/>
</svg>
